<?xml version="1.0" encoding="UTF-8" ?>
<!DOCTYPE svg PUBLIC "-//W3C//DTD SVG 1.1//EN" "http://www.w3.org/Graphics/SVG/1.1/DTD/svg11.dtd">
<svg width="140pt" height="150pt" viewBox="0 0 322 454" version="1.1" xmlns="http://www.w3.org/2000/svg">
<g id="#fefefeff">
</g>
<g id="#e31e24ff">
<path fill="#e31e24" opacity="1.00" d=" M 154.22 1.61 C 164.95 7.55 173.77 17.26 177.93 28.87 C 183.40 44.85 179.29 63.51 168.12 76.09 C 160.41 85.71 149.73 92.31 141.56 101.47 C 135.85 107.98 134.46 116.95 134.61 125.34 C 124.33 120.87 116.19 110.51 116.26 99.02 C 115.71 88.95 120.07 79.43 125.28 71.07 C 132.43 59.59 144.37 51.67 149.96 39.14 C 154.87 27.30 154.34 14.17 154.22 1.61 Z" />
</g>
<g id="#00a0e3ff">
<path fill="#00a0e3" opacity="1.00" d=" M 131.32 10.29 C 138.02 13.43 143.27 20.31 142.67 27.96 C 143.08 35.35 138.58 41.71 133.85 46.92 C 129.41 51.68 125.14 56.81 122.96 63.04 C 118.51 57.90 117.08 50.38 118.83 43.86 C 120.85 36.62 127.50 32.01 130.00 25.01 C 131.89 20.33 131.24 15.21 131.32 10.29 Z" />
</g>
<g id="#009845ff">
<path fill="#009845" opacity="1.00" d=" M 189.54 52.61 C 197.40 59.18 199.53 70.24 199.67 80.00 C 200.10 92.31 194.74 105.60 183.51 111.68 C 172.99 117.82 160.13 123.06 155.23 135.17 C 151.62 132.98 148.86 129.65 146.78 126.03 C 144.35 121.82 144.69 116.31 147.29 112.26 C 152.10 104.30 159.86 98.87 166.55 92.62 C 174.96 85.22 183.33 76.96 187.34 66.26 C 188.98 61.91 189.44 57.23 189.54 52.61 Z" />
</g>
<g id="#29416fff">
<path fill="#29416f" opacity="1.00" d=" M 1.10 106.54 C 37.19 106.47 73.28 106.61 109.37 106.47 C 109.88 107.78 110.38 109.10 110.89 110.42 C 75.66 110.39 40.42 110.45 5.19 110.39 C 5.12 138.90 4.96 167.42 5.54 195.93 C 6.89 227.16 9.56 258.57 17.37 288.92 C 24.99 318.96 38.59 347.64 58.36 371.62 C 85.19 404.68 121.38 428.60 158.88 447.98 C 159.90 448.54 161.12 448.93 162.18 448.19 C 185.60 436.17 208.29 422.48 228.71 405.81 C 246.86 390.95 263.26 373.75 276.04 354.03 C 291.53 330.58 301.27 303.78 307.17 276.42 C 318.22 221.81 316.62 165.82 316.67 110.40 C 277.07 110.39 237.46 110.48 197.86 110.36 C 198.99 108.96 199.66 106.21 201.97 106.54 C 241.49 106.50 281.01 106.56 320.53 106.51 C 320.64 146.68 321.17 186.93 318.08 227.01 C 315.65 255.80 311.05 284.69 301.19 311.95 C 292.76 335.86 279.87 358.17 263.45 377.47 C 236.18 409.55 200.37 433.11 163.11 452.04 C 161.30 453.41 159.26 452.62 157.51 451.62 C 127.81 436.33 99.09 418.39 74.90 395.16 C 53.14 374.73 35.64 349.75 24.24 322.13 C 9.95 287.24 4.42 249.41 2.52 211.96 C 1.29 193.68 1.24 175.34 1.04 157.01 C -0.14 140.22 0.30 123.35 1.10 106.54 Z" />
<path fill="#29416f" opacity="1.00" d=" M 10.45 116.46 C 44.96 116.51 79.49 116.29 113.99 116.56 C 116.51 118.82 118.46 121.62 120.56 124.25 C 86.47 124.46 52.38 124.28 18.29 124.33 C 18.20 164.91 17.98 205.62 22.58 246.00 C 26.95 282.09 36.78 318.37 57.34 348.78 C 80.53 383.79 115.19 409.34 151.62 429.24 C 154.73 430.73 157.59 432.92 160.98 433.75 C 163.79 432.80 166.29 431.14 168.91 429.78 C 196.39 414.84 222.67 396.98 244.11 374.01 C 263.71 353.42 278.33 328.27 287.14 301.27 C 299.77 262.55 302.01 221.50 302.94 181.07 C 303.38 162.16 303.39 143.22 303.19 124.30 C 262.35 124.28 221.50 124.52 180.67 124.19 C 184.04 121.35 187.98 119.30 191.36 116.46 C 231.25 116.39 271.14 116.50 311.03 116.41 C 311.49 133.94 311.13 151.50 311.20 169.04 C 310.57 180.02 310.63 191.04 310.32 202.04 C 309.47 214.39 309.15 226.77 307.68 239.07 C 303.95 275.38 295.47 311.97 276.71 343.64 C 263.13 366.88 244.53 386.91 223.48 403.55 C 204.55 418.60 183.71 431.06 162.25 442.13 C 161.26 442.85 160.07 442.58 159.08 442.03 C 133.20 428.65 108.15 413.22 86.40 393.71 C 61.63 371.89 41.81 344.22 30.32 313.20 C 18.62 282.19 13.85 248.98 12.05 216.04 C 9.98 182.90 10.45 149.65 10.45 116.46 Z" />
<path fill="#29416f" opacity="1.00" d=" M 166.88 177.05 C 161.09 163.49 159.69 147.88 163.55 133.63 C 167.37 142.85 171.29 152.07 176.42 160.66 C 195.05 193.52 224.76 218.16 244.63 250.15 C 253.33 263.98 259.32 279.63 261.35 295.87 C 261.98 306.25 262.24 316.85 259.79 327.04 C 254.54 351.06 240.06 372.67 220.54 387.46 C 205.50 398.89 186.84 405.50 167.94 405.83 C 150.90 406.30 133.24 403.74 118.13 395.46 C 141.36 400.67 166.74 399.38 188.16 388.37 C 221.78 371.27 241.66 332.21 238.22 295.00 C 237.00 282.22 231.84 270.24 225.67 259.12 C 216.17 241.98 203.05 227.30 190.44 212.44 C 181.38 201.54 172.34 190.26 166.88 177.05 Z" />
<path fill="#29416f" opacity="1.00" d=" M 115.37 210.09 C 122.16 190.37 128.84 170.61 135.51 150.86 C 135.95 164.58 135.65 178.33 135.73 192.06 C 136.03 193.94 134.26 194.99 133.18 196.22 C 126.72 202.42 120.54 208.90 114.04 215.06 C 114.43 213.38 114.84 211.72 115.37 210.09 Z" />
<path fill="#29416f" opacity="1.00" d=" M 144.95 152.35 C 146.01 153.93 146.84 155.67 147.42 157.49 C 153.88 176.75 160.44 195.98 166.96 215.23 C 161.65 210.80 157.08 205.60 152.08 200.84 C 149.64 198.27 146.77 196.05 144.80 193.08 C 144.69 179.51 144.49 165.91 144.95 152.35 Z" />
<path fill="#29416f" opacity="1.00" d=" M 135.73 203.06 C 136.74 217.52 135.80 232.06 136.24 246.56 C 127.92 248.40 119.39 246.09 111.01 247.18 C 108.34 247.54 105.69 246.93 103.04 246.72 C 105.06 241.61 106.10 236.08 108.58 231.19 C 117.34 221.55 126.78 212.53 135.73 203.06 Z" />
<path fill="#29416f" opacity="1.00" d=" M 144.48 246.66 C 144.65 232.09 144.40 217.51 144.61 202.94 C 152.96 211.08 160.84 219.70 169.09 227.94 C 174.64 232.59 174.78 240.47 177.76 246.65 C 171.90 247.81 165.93 247.00 160.02 246.98 C 154.84 247.28 149.62 247.51 144.48 246.66 Z" />
<path fill="#29416f" opacity="1.00" d=" M 100.70 253.41 C 110.23 253.33 119.75 253.36 129.27 253.44 C 127.28 256.07 125.21 258.64 122.95 261.05 C 109.57 276.39 96.31 291.83 82.90 307.14 C 84.09 301.52 86.44 296.25 88.07 290.76 C 92.33 278.32 96.51 265.86 100.70 253.41 Z" />
<path fill="#29416f" opacity="1.00" d=" M 151.70 253.42 C 161.04 253.44 170.40 253.20 179.73 253.49 C 184.61 266.43 188.71 279.66 193.25 292.73 C 194.85 297.49 196.67 302.18 197.94 307.05 C 183.28 291.01 169.43 274.24 155.00 258.01 C 153.70 256.63 152.66 255.04 151.70 253.42 Z" />
<path fill="#29416f" opacity="1.00" d=" M 131.37 261.32 C 132.79 259.64 134.34 258.07 135.84 256.46 C 136.35 261.29 136.13 266.15 136.16 271.00 C 136.02 290.38 136.45 309.78 135.93 329.15 C 130.94 324.97 125.33 321.30 118.84 319.98 C 103.37 316.96 88.26 322.76 73.89 327.79 C 92.76 305.39 112.27 283.53 131.37 261.32 Z" />
<path fill="#29416f" opacity="1.00" d=" M 144.57 256.71 C 147.39 258.78 149.55 261.56 151.80 264.22 C 170.12 285.44 188.66 306.48 206.92 327.75 C 197.35 324.81 188.02 320.75 178.00 319.56 C 171.02 319.05 163.71 318.74 157.09 321.43 C 152.41 323.08 148.51 326.24 144.56 329.14 C 144.52 305.00 144.51 280.85 144.57 256.71 Z" />
<path fill="#29416f" opacity="1.00" d=" M 60.17 341.77 C 73.30 336.51 85.77 329.11 99.90 326.73 C 108.28 325.50 117.13 325.75 125.02 329.07 C 130.60 331.32 135.17 335.46 139.00 340.02 C 130.38 335.35 120.97 331.51 110.99 331.71 C 93.87 332.00 78.53 340.41 63.21 347.02 C 62.20 345.27 61.19 343.52 60.17 341.77 Z" />
<path fill="#29416f" opacity="1.00" d=" M 141.25 340.53 C 147.88 331.51 158.78 326.09 169.96 326.07 C 189.46 325.60 207.08 335.16 224.79 341.99 C 223.72 343.78 222.67 345.60 221.63 347.42 C 204.78 339.62 187.06 331.16 168.02 332.12 C 158.44 331.93 149.35 335.73 141.25 340.53 Z" />
<path fill="#29416f" opacity="1.00" d=" M 65.68 350.08 C 77.09 345.89 87.75 339.28 99.95 337.55 C 114.20 335.05 130.68 339.79 139.15 352.08 C 130.11 346.55 119.83 342.37 109.05 342.75 C 94.69 343.01 81.66 349.70 68.85 355.42 C 67.33 353.95 66.57 351.94 65.68 350.08 Z" />
<path fill="#29416f" opacity="1.00" d=" M 141.09 352.49 C 149.61 340.33 165.66 334.98 179.99 337.49 C 193.90 339.45 206.35 346.32 219.37 351.16 C 218.33 352.99 217.27 354.81 216.17 356.61 C 201.93 349.98 187.05 343.15 171.03 343.06 C 160.37 342.99 149.92 346.63 141.09 352.49 Z" />
<path fill="#29416f" opacity="1.00" d=" M 141.37 363.88 C 147.88 354.18 159.32 348.25 170.97 348.30 C 186.24 347.44 199.93 355.31 213.89 360.26 C 212.63 362.02 211.34 363.76 210.06 365.50 C 196.79 359.77 182.86 353.97 168.11 354.64 C 158.51 355.05 149.34 358.63 141.37 363.88 Z" />
<path fill="#29416f" opacity="1.00" d=" M 71.14 358.75 C 83.07 354.28 94.84 347.66 107.98 348.28 C 119.68 347.93 132.04 353.09 138.46 363.18 C 130.09 358.24 120.87 354.04 110.94 354.15 C 98.20 353.63 86.42 359.10 74.93 363.84 C 73.67 362.13 72.41 360.44 71.14 358.75 Z" />
</g>
</svg>
